<?xml version="1.0" encoding="UTF-8" standalone="no"?>
<svg
   xmlns:dc="http://purl.org/dc/elements/1.1/"
   xmlns:cc="http://creativecommons.org/ns#"
   xmlns:rdf="http://www.w3.org/1999/02/22-rdf-syntax-ns#"
   xmlns:svg="http://www.w3.org/2000/svg"
   xmlns="http://www.w3.org/2000/svg"
   xmlns:sodipodi="http://sodipodi.sourceforge.net/DTD/sodipodi-0.dtd"
   xmlns:inkscape="http://www.inkscape.org/namespaces/inkscape"
   width="24"
   height="24"
   viewBox="0 0 24 24"
   version="1.1"
   id="svg995"
   sodipodi:docname="main_icon2.svg"
   inkscape:version="0.92.3 (2405546, 2018-03-11)">
  <metadata
     id="metadata1001">
    <rdf:RDF>
      <cc:Work
         rdf:about="">
        <dc:format>image/svg+xml</dc:format>
        <dc:type
           rdf:resource="http://purl.org/dc/dcmitype/StillImage" />
        <dc:title></dc:title>
      </cc:Work>
    </rdf:RDF>
  </metadata>
  <defs
     id="defs999" />
  <sodipodi:namedview
     pagecolor="#ffffff"
     bordercolor="#666666"
     borderopacity="1"
     objecttolerance="10"
     gridtolerance="10"
     guidetolerance="10"
     inkscape:pageopacity="0"
     inkscape:pageshadow="2"
     inkscape:window-width="1920"
     inkscape:window-height="1011"
     id="namedview997"
     showgrid="true"
     inkscape:zoom="19.666667"
     inkscape:cx="4.2899084"
     inkscape:cy="8.5084434"
     inkscape:window-x="0"
     inkscape:window-y="0"
     inkscape:window-maximized="1"
     inkscape:current-layer="svg995">
    <inkscape:grid
       type="xygrid"
       id="grid1550"
       dotted="false" />
  </sodipodi:namedview>
  <path
     fill="none"
     d="M0 0h24v24H0V0z"
     id="path991" />
  <path
     d="M 16.839165,2.0792814 6.8719422,3.0734257 C 6.418523,3.1186503 6.0599974,3.0221856 6.059916,4.0419282 l -0.00128,15.9994368 c -8.14e-5,1.019743 -0.105951,2.220034 0.9070597,2.111252 l 9.987467,-1.072507 c 1.01301,-0.108782 1.102487,-0.516636 1.101591,-1.085132 L 18.029274,3.8152289 C 18.027668,2.7954873 17.852961,1.978164 16.839165,2.0792814 Z M 17,20 7,21 V 4 L 17,3 Z m -4.408094,-6.913824 v 1.622318 l 2.602629,-2.428842 c 0.194502,-0.185407 0.194502,-0.49133 0,-0.676738 L 12.591906,9.1740722 v 1.5759658 c -2.8804875,0.398627 -4.0289778,2.37322 -4.4457687,4.357083 1.0280841,-1.390559 2.3896007,-2.020945 4.4457687,-2.020945 z"
     id="path993"
     inkscape:connector-curvature="0"
     sodipodi:nodetypes="sssssssssccccccccccccc"
     style="stroke-width:0.9266203" />
  <text
     xml:space="preserve"
     style="font-style:normal;font-weight:normal;font-size:3.80650735px;line-height:1.25;font-family:sans-serif;letter-spacing:0px;word-spacing:0px;fill:#000000;fill-opacity:1;stroke:none;stroke-width:0.09516268"
     x="5.5977201"
     y="11.222636"
     id="text1548"
     transform="matrix(1.1236103,-0.15598739,0.12121813,0.87315991,0,0)"><tspan
       sodipodi:role="line"
       id="tspan1546"
       x="5.5977201"
       y="11.222636"
       style="stroke-width:0.09516268">Web</tspan></text>
</svg>
